<?xml version="1.0" standalone="no"?>
<!DOCTYPE svg PUBLIC "-//W3C//DTD SVG 20010904//EN"
 "http://www.w3.org/TR/2001/REC-SVG-20010904/DTD/svg10.dtd">
<svg version="1.0" xmlns="http://www.w3.org/2000/svg"
 width="2888.000000pt" height="2840.000000pt" viewBox="0 0 2888.000000 2840.000000"
 preserveAspectRatio="xMidYMid meet">

<g transform="translate(0.000000,2840.000000) scale(0.100000,-0.100000)"
fill="#000000" stroke="none">
<path d="M13795 28344 c-597 -23 -1458 -124 -2035 -240 -934 -187 -1618 -388
-2546 -750 -423 -164 -1088 -476 -1534 -720 -418 -228 -1022 -603 -1385 -860
-489 -346 -1101 -830 -1405 -1109 -42 -38 -168 -154 -281 -257 -1173 -1071
-2244 -2487 -3043 -4023 -313 -601 -645 -1437 -870 -2190 -322 -1080 -481
-1929 -568 -3030 -21 -262 -23 -353 -23 -940 1 -582 3 -680 23 -935 44 -554
97 -971 182 -1437 191 -1033 511 -2087 912 -2998 334 -760 885 -1718 1446
-2515 747 -1061 1877 -2238 2938 -3060 669 -518 1464 -1047 2109 -1402 225
-124 706 -364 955 -477 1003 -453 1921 -765 2875 -976 406 -90 883 -175 1175
-209 69 -8 163 -20 210 -25 491 -59 1245 -96 1730 -86 1473 32 2666 229 4005
662 414 134 1127 411 1545 601 25 11 95 42 155 70 713 321 1332 668 2020 1130
409 275 780 547 1155 846 111 89 367 301 380 316 3 3 61 55 130 115 364 320
825 777 1150 1140 276 308 463 532 796 951 156 196 428 586 676 969 79 122
321 527 418 700 73 129 120 216 120 220 0 2 14 28 31 57 29 49 295 577 332
658 207 458 420 1000 545 1390 292 905 485 1785 581 2655 19 170 27 253 50
540 26 313 33 591 28 1129 -5 566 -17 813 -62 1248 -166 1621 -636 3251 -1345
4668 -413 827 -983 1747 -1464 2367 -39 50 -98 126 -131 169 -371 483 -752
910 -1266 1420 -612 607 -1160 1066 -1919 1606 -1050 746 -2175 1339 -3365
1773 -834 304 -1625 514 -2470 655 -509 84 -863 126 -1440 171 -131 10 -1324
20 -1520 13z m1445 -998 c1657 -122 3173 -516 4685 -1219 742 -345 1528 -808
2184 -1285 709 -517 1108 -858 1737 -1487 452 -451 683 -704 938 -1025 55 -69
125 -156 156 -195 257 -318 606 -817 870 -1245 45 -74 100 -162 120 -195 186
-298 564 -1021 728 -1390 225 -511 329 -778 495 -1275 258 -770 455 -1702 557
-2625 91 -831 93 -1816 4 -2600 -139 -1239 -432 -2382 -884 -3450 -283 -669
-469 -1031 -847 -1656 -130 -214 -393 -610 -532 -799 -34 -47 -69 -96 -79
-110 -21 -31 -224 -303 -232 -310 -3 -3 -44 -54 -90 -115 -283 -368 -849 -996
-1193 -1324 -791 -754 -1429 -1263 -2242 -1788 -441 -284 -1054 -621 -1545
-848 -74 -34 -164 -76 -200 -93 -437 -202 -1065 -450 -1424 -562 -336 -105
-434 -134 -621 -185 -753 -204 -1495 -332 -2345 -405 -981 -84 -2075 -38
-3120 131 -357 58 -848 166 -1225 270 -851 236 -1619 529 -2430 929 -452 223
-681 347 -1010 545 -794 478 -1546 1039 -2230 1663 -258 235 -887 870 -1071
1082 -284 325 -418 488 -683 830 -173 224 -470 653 -693 1000 -698 1090 -1173
2187 -1542 3560 -181 678 -272 1216 -346 2065 -61 697 -48 1525 36 2300 45
416 84 682 150 1035 55 292 173 789 250 1055 98 336 315 965 430 1247 25 62
61 149 79 193 28 70 101 241 141 330 430 971 1092 2047 1793 2915 487 603
1153 1286 1746 1790 903 767 1700 1301 2725 1828 173 88 288 144 579 279 306
142 885 370 1171 463 30 9 127 41 214 69 590 192 1354 373 2031 480 455 71
1047 128 1530 145 242 8 1030 -3 1235 -18z"/>
<path d="M14250 27164 c-141 -38 -246 -125 -314 -261 -35 -68 -49 -150 -44
-244 8 -138 102 -290 222 -359 207 -118 421 -93 581 67 89 90 145 217 145 328
-1 113 -59 253 -142 338 -68 69 -126 102 -223 127 -91 23 -149 24 -225 4z"/>
<path d="M15535 26870 c-116 -13 -202 -56 -282 -143 -80 -86 -109 -171 -132
-382 -6 -55 -27 -242 -46 -415 -32 -291 -64 -610 -80 -788 -14 -160 52 -303
167 -363 40 -20 218 -58 398 -84 161 -23 703 -112 835 -136 390 -74 545 -109
859 -198 303 -86 346 -87 427 -14 41 37 59 71 97 178 22 61 392 1261 392 1270
0 17 42 5 355 -102 245 -83 779 -284 794 -299 12 -12 -85 -284 -106 -297 -5
-3 -72 19 -148 49 -491 193 -595 211 -704 118 -49 -42 -100 -147 -214 -434
-122 -309 -152 -407 -152 -505 0 -88 14 -125 69 -183 37 -39 123 -89 221 -127
67 -27 181 -76 468 -204 135 -60 173 -78 567 -266 261 -124 316 -145 379 -145
141 0 182 43 361 385 35 66 80 149 100 185 21 36 55 99 77 140 22 41 67 125
100 185 32 61 81 154 109 208 65 129 112 191 147 195 47 6 237 -100 577 -319
342 -220 847 -588 968 -704 87 -85 76 -118 -118 -368 -69 -89 -200 -258 -290
-375 -90 -118 -170 -216 -177 -219 -26 -10 -148 73 -419 289 -239 190 -354
289 -354 305 0 43 168 233 206 233 22 0 118 -75 157 -123 18 -23 54 -74 79
-113 43 -66 103 -126 156 -154 68 -35 174 3 258 91 68 73 96 134 102 225 6 95
-16 141 -106 226 -74 69 -487 349 -622 421 -83 44 -223 97 -258 97 -51 0 -146
-93 -311 -305 -147 -189 -175 -229 -240 -341 -65 -114 -104 -222 -104 -292 0
-101 44 -147 368 -382 178 -129 533 -396 700 -525 293 -228 421 -266 597 -180
106 52 180 131 493 526 93 118 203 256 245 308 216 269 251 326 268 432 30
194 -51 377 -249 563 -212 200 -883 675 -1398 991 -363 222 -563 328 -658 348
-52 11 -57 10 -109 -17 -70 -37 -137 -111 -207 -228 -66 -112 -97 -171 -352
-673 -109 -214 -204 -397 -212 -406 -13 -15 -19 -14 -76 13 -34 17 -177 77
-317 133 -140 57 -304 125 -365 152 -60 28 -138 63 -172 79 -72 32 -73 35 -42
127 52 155 80 217 99 217 32 0 178 -60 317 -132 176 -90 252 -118 320 -118 70
0 118 25 175 90 52 59 147 238 209 393 46 116 54 126 139 184 106 74 157 177
147 299 -8 100 -55 167 -163 230 -103 61 -778 343 -1089 456 -384 140 -818
276 -890 281 -38 2 -40 0 -68 -51 -63 -117 -183 -475 -362 -1082 -83 -281
-134 -442 -146 -456 -10 -13 -195 30 -217 50 -10 10 -7 36 12 131 84 413 96
556 53 648 -31 66 -98 142 -148 168 -49 25 -503 134 -624 150 -130 17 -278 8
-338 -21 -93 -44 -154 -144 -179 -292 -25 -146 40 -245 185 -284 92 -24 152
-19 216 20 31 19 67 37 81 40 32 7 246 -37 243 -49 -1 -6 -21 -90 -45 -187
-38 -158 -45 -178 -63 -178 -11 0 -85 13 -165 30 -132 26 -577 101 -693 115
-28 4 -50 12 -54 21 -3 7 16 200 41 426 25 227 50 465 56 528 19 204 20 206
193 190 119 -11 366 -45 537 -74 47 -8 128 -22 180 -31 139 -24 390 -73 510
-101 201 -47 343 -74 382 -74 32 0 46 6 69 31 29 31 70 141 84 227 16 100 -24
173 -118 211 -201 80 -829 212 -1357 285 -179 25 -487 57 -519 55 -9 -1 -47
-5 -86 -9z"/>
<path d="M12815 26849 c-195 -25 -756 -124 -1000 -176 -481 -103 -1015 -256
-1167 -335 -93 -48 -162 -117 -178 -179 -25 -90 8 -222 246 -1009 14 -47 48
-152 74 -235 27 -82 52 -167 55 -187 7 -34 5 -39 -26 -57 -36 -22 -77 -39
-244 -99 -60 -22 -234 -86 -385 -143 -151 -56 -291 -108 -310 -115 -30 -11
-37 -10 -46 2 -20 26 -97 265 -88 274 10 9 146 64 335 135 227 87 307 137 345
218 43 93 31 190 -76 617 -93 370 -138 480 -223 541 -50 36 -106 38 -203 8
-89 -28 -548 -210 -729 -289 -325 -143 -756 -367 -1052 -548 -126 -76 -128
-78 -125 -111 4 -49 75 -225 202 -496 62 -132 143 -307 180 -390 38 -82 103
-222 145 -310 119 -248 125 -261 125 -272 0 -12 -139 -113 -156 -113 -14 0
-46 40 -124 155 -101 150 -221 304 -269 347 -58 53 -104 68 -200 68 -58 0 -82
-5 -124 -26 -124 -63 -554 -370 -655 -468 -87 -84 -108 -152 -77 -247 50 -156
169 -279 270 -279 71 0 179 80 242 179 20 31 48 68 63 82 41 40 175 139 188
139 12 0 33 -27 124 -168 37 -57 65 -109 62 -117 -3 -7 -56 -49 -117 -92 -108
-75 -444 -326 -574 -427 -79 -61 -59 -76 -238 169 -117 159 -271 363 -378 500
-60 77 -114 150 -120 163 -13 29 4 47 142 156 434 340 733 553 1068 762 129
81 233 180 251 240 20 67 15 128 -18 213 -24 62 -41 89 -80 125 -27 25 -58 46
-70 46 -78 0 -671 -389 -1144 -750 -593 -453 -674 -530 -720 -689 -31 -107
-15 -243 40 -338 14 -24 77 -108 142 -187 64 -79 198 -246 297 -372 99 -125
207 -259 240 -298 33 -39 81 -96 105 -126 94 -114 171 -173 257 -195 120 -31
251 -12 351 51 61 39 235 171 422 319 166 132 579 441 706 528 100 69 207 134
471 289 164 96 208 150 206 253 -1 76 -62 242 -198 540 -35 78 -297 680 -329
757 -20 48 -36 95 -36 105 0 40 179 132 715 368 184 81 391 165 408 165 8 0
19 -11 25 -25 20 -44 82 -266 77 -275 -3 -5 -29 -16 -58 -26 -175 -57 -420
-168 -544 -246 -129 -81 -183 -178 -163 -289 20 -111 192 -597 275 -777 45
-97 69 -129 123 -163 38 -24 57 -29 109 -29 80 0 124 15 453 158 372 161 651
272 890 354 231 80 290 105 344 150 102 84 102 218 -3 594 -128 462 -189 680
-228 809 -64 211 -63 199 -11 220 60 24 507 134 788 194 400 85 903 171 1000
171 65 0 113 -18 125 -47 3 -10 20 -133 36 -273 16 -140 43 -358 59 -485 33
-252 37 -334 18 -339 -7 -2 -116 -23 -243 -46 -300 -54 -538 -98 -598 -110
-76 -16 -83 -14 -100 28 -18 45 -87 296 -87 317 0 16 129 60 208 71 44 6 60 2
119 -25 87 -41 132 -47 218 -27 166 39 229 124 204 277 -20 127 -86 228 -173
264 -88 37 -276 28 -551 -26 -301 -59 -496 -128 -562 -200 -33 -36 -63 -109
-63 -156 0 -37 93 -553 150 -828 36 -174 46 -194 115 -226 61 -28 138 -23 371
22 372 72 406 78 604 108 107 17 299 44 425 61 251 33 324 49 400 84 58 26
107 82 131 148 30 81 6 370 -106 1273 -17 132 -37 265 -46 295 -25 87 -73 167
-132 221 -107 98 -232 140 -412 138 -63 -1 -146 -6 -185 -10z"/>
<path d="M14040 24284 c-1065 -45 -2092 -244 -3068 -593 -425 -153 -761 -293
-1107 -464 -546 -270 -951 -508 -1360 -800 -1021 -729 -1787 -1478 -2428
-2374 -359 -502 -573 -851 -833 -1358 -339 -663 -656 -1596 -824 -2427 -379
-1877 -244 -3677 405 -5413 197 -528 536 -1204 873 -1745 196 -314 515 -760
712 -995 37 -44 96 -114 131 -155 328 -391 875 -931 1244 -1231 594 -482 1088
-822 1710 -1174 318 -180 809 -415 1180 -565 845 -340 1758 -569 2660 -665
453 -49 831 -68 1240 -62 322 5 740 28 911 52 22 2 116 14 209 26 505 62 1176
207 1650 356 638 201 1332 490 1825 760 482 265 683 385 1010 603 981 654
1813 1436 2481 2330 200 269 240 325 364 510 496 742 899 1584 1174 2450 179
566 314 1210 381 1817 60 541 66 1362 14 1948 -63 723 -209 1455 -418 2088
-136 413 -257 727 -412 1075 -398 892 -907 1696 -1533 2422 -171 198 -227 257
-510 540 -442 441 -786 728 -1361 1136 -882 628 -1987 1161 -3040 1469 -819
239 -1455 358 -2230 416 -252 18 -846 32 -1050 23z m905 -544 c445 -24 924
-89 1403 -190 1158 -246 2304 -715 3302 -1353 486 -311 685 -456 1110 -813
651 -545 1255 -1217 1756 -1954 453 -667 880 -1571 1157 -2450 102 -325 147
-494 217 -830 101 -483 148 -854 175 -1398 76 -1498 -161 -2850 -730 -4168
-268 -620 -663 -1288 -1094 -1849 -314 -409 -505 -630 -855 -983 -626 -634
-1290 -1147 -2073 -1603 -537 -313 -981 -525 -1538 -734 -973 -365 -1859 -553
-2904 -616 -235 -14 -855 -6 -1141 15 -947 70 -1897 294 -2840 668 -435 173
-1014 459 -1400 693 -624 378 -1178 782 -1600 1170 -772 709 -1260 1291 -1762
2100 -288 464 -550 992 -773 1560 -452 1149 -656 2444 -587 3725 35 636 101
1098 247 1720 251 1068 709 2124 1311 3020 366 546 686 933 1189 1435 571 572
1071 966 1779 1402 488 301 1189 643 1671 816 39 14 108 40 155 57 310 114
823 265 1085 320 22 4 128 26 235 49 496 103 1034 171 1525 194 159 8 820 6
980 -3z"/>
<path d="M12885 19464 c-203 -106 -258 -138 -326 -192 -195 -156 -351 -408
-421 -682 -39 -153 -49 -370 -23 -500 32 -158 126 -412 209 -563 13 -23 54
-100 91 -172 38 -71 87 -164 110 -205 75 -134 231 -444 253 -503 28 -73 28
-120 1 -199 -63 -184 -419 -818 -761 -1353 -63 -99 -158 -250 -212 -335 -541
-858 -728 -1137 -964 -1435 -193 -242 -497 -561 -638 -668 -170 -128 -321
-186 -547 -207 -445 -43 -843 244 -962 695 -50 188 -44 440 16 679 28 113 43
152 115 301 85 178 182 321 302 447 54 57 54 60 -27 186 l-61 93 -52 -27
c-108 -54 -293 -202 -440 -351 -450 -456 -668 -978 -668 -1600 0 -543 151
-944 480 -1274 160 -161 309 -260 507 -338 276 -109 698 -120 1058 -30 252 64
562 223 827 426 231 176 517 486 891 967 64 83 137 177 162 208 155 197 679
975 925 1373 107 173 83 133 370 605 122 201 232 381 245 400 12 19 109 177
215 350 107 173 211 344 232 378 62 101 125 231 177 370 90 235 96 260 96 417
-1 219 -27 294 -222 630 -64 110 -141 243 -171 295 -30 52 -86 149 -124 215
-39 66 -119 206 -178 310 -59 105 -129 226 -155 270 -173 297 -261 583 -293
952 l-7 83 -30 -16z"/>
<path d="M15916 19404 c-4 -9 -11 -107 -16 -218 -17 -331 -38 -430 -147 -690
-89 -212 -155 -327 -447 -778 -171 -266 -370 -618 -404 -715 -10 -29 -8 -36
14 -62 13 -16 95 -76 182 -134 86 -58 190 -135 230 -172 144 -133 252 -323
345 -610 40 -123 63 -241 92 -470 14 -115 29 -220 32 -232 7 -32 30 -28 54 10
74 117 444 918 630 1367 49 118 96 230 104 248 20 44 10 65 -103 209 -142 181
-257 342 -260 364 -2 12 16 53 42 95 51 82 139 276 184 404 73 210 96 490 58
705 -50 280 -204 487 -490 659 -66 40 -91 44 -100 20z"/>
<path d="M7171 19332 c8 -10 30 -40 49 -66 19 -27 145 -195 279 -375 349 -466
438 -608 536 -846 20 -49 52 -124 70 -165 98 -221 311 -714 363 -840 34 -80
99 -232 146 -339 47 -106 86 -195 86 -197 0 -7 525 -1202 625 -1424 24 -52 95
-212 158 -355 63 -143 126 -285 140 -315 39 -87 182 -418 212 -490 14 -36 37
-87 49 -115 13 -27 36 -79 52 -115 36 -81 273 -548 295 -581 16 -23 16 -23 44
-5 76 50 229 233 409 489 156 223 436 653 436 671 0 12 -106 260 -236 551
-350 784 -383 860 -488 1097 -122 277 -422 966 -611 1403 -166 382 -254 580
-313 704 -23 47 -39 88 -37 92 8 11 183 -47 262 -87 138 -70 162 -108 389
-629 70 -159 176 -402 236 -540 60 -137 162 -374 228 -525 65 -152 171 -395
235 -540 65 -146 143 -326 175 -400 173 -405 342 -757 367 -767 7 -3 20 0 27
6 21 18 220 318 401 606 45 72 112 177 150 235 37 58 97 150 133 205 36 55 80
123 99 151 l33 52 -84 203 c-46 112 -106 256 -134 319 -57 132 -194 444 -224
510 -50 111 -138 311 -138 315 0 2 -13 32 -30 67 -28 60 -66 148 -250 573 -42
99 -88 211 -100 249 -21 63 -22 75 -11 137 34 187 201 398 603 761 186 167
308 292 308 314 0 7 -10 14 -22 18 -13 3 -1127 6 -2477 6 -2377 0 -2453 -1
-2440 -18z"/>
<path d="M16570 19345 c0 -28 70 -107 294 -335 332 -337 417 -440 494 -595 81
-164 95 -273 49 -405 -35 -102 -223 -558 -467 -1130 -540 -1269 -887 -2082
-915 -2145 -41 -90 -246 -572 -300 -705 -34 -85 -95 -234 -135 -330 -40 -96
-87 -211 -105 -255 -18 -44 -85 -206 -150 -360 -64 -154 -160 -383 -212 -510
-52 -126 -133 -322 -180 -435 -46 -113 -111 -271 -143 -351 -32 -80 -105 -257
-163 -395 -58 -137 -135 -323 -172 -414 -79 -194 -94 -225 -104 -214 -14 17
-160 351 -299 684 -90 214 -483 1149 -532 1265 -24 55 -128 300 -232 545 -191
449 -274 644 -302 713 -8 20 -19 37 -23 37 -8 -1 -211 -302 -531 -790 -100
-151 -209 -315 -242 -364 l-61 -89 22 -61 c85 -235 360 -893 832 -1991 848
-1974 927 -2161 927 -2180 0 -12 -24 -15 -138 -15 -120 0 -141 2 -154 18 -26
30 -246 517 -568 1262 -87 201 -219 507 -295 680 -75 173 -182 421 -237 550
-55 129 -172 404 -260 610 -88 206 -193 456 -233 555 -101 247 -104 255 -114
255 -17 0 -103 -93 -306 -330 -253 -294 -508 -572 -609 -663 -42 -38 -76 -75
-76 -83 0 -37 124 -341 445 -1089 106 -247 243 -569 305 -715 61 -146 147
-346 190 -445 116 -268 468 -1093 630 -1475 192 -454 194 -458 222 -465 13 -3
759 -4 1658 -3 l1634 3 227 565 c273 684 560 1393 647 1600 22 52 107 256 191
453 83 197 151 360 151 363 0 2 9 23 19 47 24 51 40 91 96 227 49 122 282 680
395 950 43 102 114 275 158 385 44 110 95 236 114 280 37 85 86 200 218 515
46 107 112 263 147 345 36 83 89 209 118 280 30 72 73 175 95 230 87 209 136
330 265 650 72 182 161 400 198 485 36 85 138 328 227 540 152 361 259 613
300 705 76 172 206 473 300 695 182 428 196 461 233 550 20 47 64 150 98 230
33 80 94 226 134 325 178 439 342 768 463 929 26 33 94 120 152 191 58 72 137
171 175 220 38 50 86 110 107 135 64 77 208 261 208 266 0 2 -1098 4 -2440 4
-1342 0 -2440 -2 -2440 -5z m2544 -1281 c-27 -60 -53 -122 -239 -564 -368
-874 -741 -1762 -920 -2190 -114 -272 -224 -535 -245 -585 -291 -692 -289
-687 -488 -1165 -60 -146 -157 -377 -215 -515 -168 -399 -227 -541 -360 -865
-69 -168 -152 -368 -185 -445 -32 -77 -108 -257 -167 -400 -59 -143 -122 -294
-140 -335 -18 -41 -74 -176 -125 -300 -50 -124 -129 -313 -175 -420 -120 -282
-433 -1032 -601 -1439 -8 -19 -17 -32 -20 -29 -5 5 -25 63 -121 339 l-26 77
30 73 c111 269 264 634 463 1104 157 371 410 971 518 1230 127 303 273 653
322 770 21 50 76 182 123 295 469 1134 504 1217 759 1825 28 66 84 199 125
295 41 96 85 202 98 235 21 54 46 114 177 425 22 52 51 120 63 150 12 30 70
168 128 305 171 409 384 918 459 1100 39 94 97 235 130 315 33 80 83 204 113
275 113 278 132 307 257 382 72 44 282 135 286 124 2 -5 -9 -35 -24 -67z"/>
<path d="M19709 15453 c-48 -145 -152 -411 -294 -748 -119 -283 -139 -343
-131 -387 3 -19 38 -88 78 -153 116 -195 160 -314 194 -530 55 -344 -28 -728
-208 -969 -65 -87 -133 -156 -233 -237 -256 -208 -442 -296 -702 -330 l-92
-13 -36 -115 c-20 -64 -56 -176 -79 -249 -38 -118 -42 -134 -27 -140 9 -4 142
-7 296 -6 245 0 295 3 400 22 484 90 884 287 1194 587 235 228 385 472 501
815 115 340 151 865 85 1241 -65 368 -254 738 -517 1010 -108 111 -309 284
-375 322 -8 5 -25 -34 -54 -120z"/>
<path d="M23290 23348 c-115 -13 -249 -99 -318 -204 -54 -81 -74 -160 -70
-277 3 -96 6 -108 42 -181 136 -276 472 -357 707 -172 173 136 228 380 128
577 -91 182 -281 282 -489 257z"/>
<path d="M5290 23317 c-122 -41 -239 -149 -284 -262 -32 -80 -49 -192 -40
-260 20 -150 114 -287 236 -345 184 -87 399 -52 545 88 102 99 148 220 141
371 -4 81 -8 98 -46 175 -46 92 -103 152 -192 200 -108 59 -248 72 -360 33z"/>
<path d="M23857 22329 c-47 -11 -126 -51 -198 -100 -60 -41 -133 -100 -447
-367 -108 -92 -264 -224 -347 -294 -82 -69 -164 -141 -182 -160 -76 -79 -113
-217 -93 -344 15 -92 45 -155 116 -239 218 -258 454 -573 669 -892 143 -212
214 -267 346 -268 58 0 76 5 154 44 48 24 191 112 316 196 420 282 442 305
443 485 1 87 -2 101 -31 162 -62 132 -331 512 -458 647 -68 72 -147 121 -195
121 -65 0 -274 -126 -317 -191 -24 -36 -25 -45 -19 -105 8 -74 28 -135 62
-181 19 -25 36 -34 78 -43 l54 -11 111 -150 c61 -82 111 -155 111 -162 0 -6
-15 -21 -33 -33 -154 -100 -242 -142 -264 -128 -28 17 -583 769 -583 789 0 6
120 108 268 225 147 118 296 239 332 270 149 129 224 169 290 155 40 -9 80
-51 215 -230 66 -88 125 -166 132 -175 47 -58 166 -226 286 -403 287 -420 492
-752 482 -779 -6 -15 -159 -106 -275 -163 -63 -31 -701 -395 -860 -491 -127
-76 -187 -130 -196 -179 -15 -80 12 -151 211 -565 265 -552 365 -793 540
-1312 103 -303 121 -334 215 -377 80 -36 96 -34 585 74 575 127 919 195 986
195 24 0 38 -30 78 -172 112 -389 233 -1013 311 -1601 18 -142 19 -160 5 -187
-21 -41 -70 -75 -135 -94 -51 -15 -976 -136 -1040 -136 -35 0 -32 -14 -65 285
-30 267 -52 425 -94 655 -17 91 -27 168 -23 171 13 12 379 92 394 87 12 -5 68
-208 68 -246 0 -5 -27 -42 -60 -82 -70 -83 -68 -63 -24 -288 32 -163 54 -209
112 -234 37 -17 57 -19 121 -13 138 12 271 56 318 107 35 37 71 127 78 192 10
99 -39 386 -130 762 -101 413 -141 446 -482 395 -216 -32 -590 -114 -755 -164
-78 -24 -135 -63 -164 -113 -26 -44 -27 -49 -21 -157 4 -69 22 -192 47 -317
78 -391 140 -814 161 -1099 16 -218 43 -309 116 -391 51 -57 109 -86 198 -100
77 -12 140 -6 555 50 124 16 335 44 470 60 492 62 560 75 664 127 111 56 199
180 227 321 41 214 -102 1126 -306 1942 -177 707 -254 848 -487 900 -80 18
-94 15 -633 -155 -276 -87 -749 -215 -794 -215 -10 0 -24 6 -30 14 -6 7 -38
90 -70 183 -125 361 -282 743 -437 1063 -52 107 -93 201 -92 209 10 51 645
408 917 516 l94 37 16 -21 c26 -34 188 -376 402 -848 25 -54 24 -70 -3 -78
-13 -4 -78 -24 -145 -46 -67 -21 -127 -39 -135 -39 -8 0 -51 88 -108 218 -135
312 -157 352 -206 369 -24 9 -58 12 -89 9 -61 -7 -215 -81 -267 -130 -80 -74
-76 -93 166 -680 138 -335 173 -386 262 -386 43 0 306 63 499 120 55 17 179
52 275 79 280 80 332 108 366 198 38 99 5 210 -214 728 -179 423 -511 1050
-807 1525 -46 74 -92 148 -101 165 -19 34 -250 379 -293 440 -16 22 -80 112
-142 200 -226 321 -413 559 -534 680 -85 85 -169 137 -259 161 -56 15 -220 17
-279 3z"/>
<path d="M4655 22313 c-115 -42 -266 -181 -434 -399 -47 -60 -101 -129 -121
-154 -61 -75 -365 -504 -474 -670 -324 -489 -580 -934 -625 -1086 -26 -88 -26
-105 -2 -152 37 -72 99 -112 261 -170 232 -83 424 -168 762 -338 238 -119 388
-202 388 -213 0 -4 -51 -109 -113 -232 -132 -261 -192 -393 -284 -624 -45
-114 -163 -438 -193 -530 -12 -38 -29 -82 -36 -96 l-13 -27 -108 29 c-59 16
-247 65 -418 108 -170 44 -337 87 -370 95 -87 23 -192 65 -206 82 -10 12 2 53
61 217 118 328 311 787 332 787 5 0 38 -20 73 -44 35 -24 93 -54 129 -66 46
-17 66 -29 66 -41 0 -9 -23 -68 -51 -130 -180 -402 -206 -495 -153 -558 30
-36 50 -42 252 -72 109 -17 158 -20 170 -13 50 30 322 680 382 916 11 42 20
87 20 100 0 33 -49 81 -134 131 -151 88 -695 340 -791 366 -79 21 -155 4 -239
-56 -119 -85 -252 -349 -486 -968 -227 -600 -402 -1186 -534 -1793 -119 -545
-226 -1402 -197 -1577 14 -81 71 -194 122 -240 108 -97 212 -122 804 -195 88
-11 268 -33 399 -50 404 -50 578 -51 675 0 55 28 121 99 148 157 26 56 47 161
62 318 32 308 72 581 142 958 89 477 92 503 58 577 -49 109 -116 138 -469 204
-421 80 -655 111 -711 96 -109 -30 -169 -139 -238 -440 -78 -341 -129 -685
-116 -790 14 -108 79 -185 184 -217 69 -22 280 -25 326 -5 34 14 71 63 86 113
15 52 39 218 39 274 0 56 -14 83 -74 136 l-38 35 34 145 c33 137 36 144 59
143 49 -2 378 -78 382 -88 2 -6 -13 -114 -34 -241 -43 -252 -69 -440 -99 -699
-10 -93 -22 -171 -25 -174 -3 -3 -126 8 -273 26 -147 18 -371 44 -499 57 -298
33 -361 52 -416 126 -19 26 -19 28 3 205 29 242 66 500 96 669 94 528 229
1076 270 1092 30 11 393 -52 804 -141 63 -14 189 -40 280 -60 91 -19 196 -42
235 -51 145 -34 250 -17 319 51 36 37 47 59 86 179 116 356 336 925 477 1235
14 30 42 93 63 140 21 47 71 153 110 235 151 313 164 364 118 455 -39 76 -72
97 -728 458 -448 247 -564 315 -568 334 -7 38 407 697 659 1048 152 213 341
459 385 503 30 29 45 37 74 37 69 0 135 -34 225 -115 41 -37 420 -345 582
-473 l93 -74 -15 -28 c-8 -16 -39 -57 -67 -92 -29 -35 -95 -117 -146 -183 -51
-66 -100 -128 -108 -138 -8 -10 -53 -71 -98 -135 -119 -167 -164 -222 -183
-222 -40 0 -293 170 -293 197 0 8 36 58 79 112 71 88 88 102 160 140 44 23 94
53 111 68 68 57 108 194 80 277 -16 50 -103 135 -170 168 -69 33 -165 53 -212
44 -78 -14 -177 -117 -359 -372 -126 -176 -220 -324 -263 -414 -26 -54 -31
-76 -30 -135 1 -124 60 -207 249 -350 310 -234 674 -417 777 -392 51 13 96 69
384 481 186 265 188 268 354 478 80 101 161 208 181 238 69 104 109 270 88
369 -25 124 -86 200 -298 374 -136 111 -213 176 -431 364 -252 217 -399 322
-510 364 -78 31 -236 36 -305 12z"/>
<path d="M26986 14420 c-70 -18 -160 -73 -227 -140 -107 -106 -145 -213 -137
-380 4 -71 10 -97 38 -155 58 -121 164 -215 289 -255 76 -24 96 -24 197 -5
165 32 301 127 381 267 24 40 47 96 52 124 38 197 -129 449 -347 525 -66 24
-189 33 -246 19z"/>
<path d="M1695 14414 c-136 -35 -223 -82 -296 -160 -95 -103 -136 -213 -126
-344 8 -105 73 -235 155 -311 165 -152 345 -178 544 -78 208 105 295 335 216
574 -46 139 -157 253 -293 298 -52 18 -166 30 -200 21z"/>
<path d="M25271 13269 c-99 -19 -177 -84 -217 -179 -25 -60 -54 -205 -89 -455
-31 -218 -84 -541 -135 -829 -30 -164 -27 -203 15 -258 19 -26 53 -55 77 -66
90 -43 827 -180 1019 -189 139 -7 175 3 234 62 51 50 78 117 110 270 13 61 38
173 56 250 39 165 46 322 17 386 -57 129 -202 198 -413 199 -144 0 -190 -37
-221 -177 -21 -97 -11 -132 57 -203 41 -43 49 -57 45 -78 -3 -15 -11 -55 -17
-90 -18 -94 -16 -93 -161 -65 -187 36 -276 62 -280 81 -2 10 2 46 8 82 7 36
31 216 54 400 23 184 46 339 51 345 6 6 113 -3 292 -23 155 -17 377 -41 492
-52 326 -32 365 -38 407 -66 21 -13 41 -35 44 -50 29 -114 -68 -706 -207
-1269 -67 -275 -88 -341 -116 -371 -31 -34 -40 -32 -373 56 -396 105 -558 145
-815 200 -154 34 -311 68 -350 76 -89 20 -129 9 -180 -47 -47 -52 -78 -123
-150 -339 -66 -201 -185 -504 -275 -700 -128 -280 -264 -589 -309 -700 -57
-145 -62 -215 -18 -273 15 -20 48 -50 72 -67 25 -17 287 -153 582 -302 296
-149 561 -284 588 -301 81 -50 135 -97 135 -118 0 -89 -511 -849 -789 -1174
-139 -163 -282 -305 -305 -305 -29 0 -55 17 -247 161 -91 68 -262 194 -380
279 -232 169 -289 215 -289 236 0 21 23 54 181 265 80 107 179 239 219 294 94
128 119 155 144 155 51 0 221 -91 284 -150 27 -26 25 -46 -14 -125 -36 -72
-70 -103 -152 -141 -96 -44 -170 -118 -196 -196 -19 -54 -19 -58 -2 -102 38
-98 143 -198 244 -231 76 -25 182 -17 256 19 45 22 68 43 115 104 104 138 351
509 382 575 59 126 48 274 -27 356 -53 60 -258 192 -589 381 -257 147 -291
163 -347 162 -104 -2 -166 -54 -329 -282 -95 -132 -501 -671 -585 -775 -30
-38 -74 -108 -97 -154 -38 -79 -41 -90 -41 -170 -1 -102 23 -164 95 -247 87
-102 422 -366 799 -631 349 -245 413 -282 537 -308 187 -40 318 9 479 178 222
232 668 842 967 1322 255 409 396 666 593 1076 169 353 213 455 277 644 61
181 71 269 39 331 -28 54 -77 98 -142 128 -48 22 -253 85 -430 133 -30 8 -137
39 -236 69 -100 29 -211 58 -246 63 -164 23 -250 -37 -329 -229 -17 -41 -78
-172 -135 -291 -58 -121 -104 -229 -104 -245 0 -67 56 -117 236 -210 127 -66
169 -70 233 -24 53 39 85 91 167 273 46 101 72 147 83 147 39 -1 316 -99 319
-113 5 -22 -36 -113 -183 -412 -74 -148 -149 -287 -167 -309 l-34 -38 -54 23
c-30 13 -129 64 -220 115 -91 50 -230 125 -310 166 -80 42 -208 108 -285 148
-77 40 -150 80 -162 89 -29 21 -29 51 1 120 14 31 66 151 117 266 110 251 169
390 214 505 45 114 140 361 148 383 4 9 14 17 24 17 24 0 175 -40 338 -89 72
-21 261 -78 420 -126 484 -145 710 -205 770 -205 63 0 132 29 180 75 81 79
117 177 259 710 171 639 286 1306 274 1596 -6 169 -57 251 -199 324 -123 63
-256 88 -839 160 -201 24 -430 54 -510 65 -162 22 -338 41 -379 39 -14 -1 -46
-5 -70 -10z"/>
<path d="M3070 13224 c-329 -40 -614 -77 -805 -105 -387 -57 -546 -126 -622
-270 -27 -53 -28 -57 -28 -214 1 -161 7 -218 71 -615 61 -381 238 -1088 360
-1443 100 -287 197 -335 492 -242 61 20 309 92 549 160 772 220 774 220 784
203 5 -7 18 -42 30 -78 45 -135 191 -491 289 -705 138 -302 220 -491 216 -501
-2 -6 -46 -30 -98 -54 -113 -53 -588 -294 -678 -344 -36 -20 -105 -57 -154
-82 -108 -55 -114 -54 -186 43 -74 100 -310 581 -310 634 0 9 14 23 33 32 50
23 239 95 268 102 29 7 21 22 123 -207 82 -180 138 -238 232 -238 67 0 261
120 327 202 29 36 30 39 18 80 -13 42 -129 299 -241 534 -66 137 -116 192
-195 214 -66 19 -115 9 -355 -68 -118 -39 -316 -102 -440 -142 -332 -106 -396
-147 -394 -254 1 -109 150 -479 364 -906 53 -107 106 -211 117 -230 11 -19 51
-91 88 -160 153 -281 614 -1012 830 -1315 321 -452 595 -764 727 -829 80 -39
170 -53 262 -39 120 17 226 76 492 275 127 95 271 202 320 237 430 312 545
414 582 513 60 162 24 302 -131 500 -40 51 -81 105 -92 119 -11 15 -54 71 -96
125 -41 55 -147 200 -234 324 -280 397 -329 449 -432 458 -67 6 -92 -6 -428
-202 -462 -270 -530 -318 -571 -403 -24 -48 -26 -62 -21 -125 9 -101 61 -205
238 -467 170 -255 233 -326 321 -367 83 -37 189 -40 261 -7 62 29 150 113 189
182 27 47 33 67 33 120 l0 63 -55 52 c-31 28 -100 75 -154 105 -104 58 -131
85 -175 179 -24 51 -24 52 -5 73 36 41 262 169 296 169 7 0 58 -62 113 -136
155 -212 281 -371 364 -461 87 -96 94 -107 86 -132 -3 -10 -70 -63 -148 -117
-170 -117 -507 -361 -631 -457 -133 -101 -134 -102 -187 -68 -111 71 -340 363
-674 859 -257 381 -345 521 -368 583 -11 29 -10 33 21 58 29 25 367 208 602
326 208 105 530 282 612 337 69 46 116 101 125 148 14 77 -1 114 -257 650
-213 445 -337 736 -425 998 -113 335 -160 366 -455 307 -160 -32 -845 -204
-1079 -270 -90 -25 -184 -49 -210 -52 -97 -11 -133 56 -225 422 -28 114 -108
497 -131 630 -44 252 -65 381 -80 492 l-17 122 23 30 c13 18 38 35 58 41 94
26 1161 146 1170 131 4 -6 17 -75 29 -153 13 -79 43 -268 68 -421 25 -153 44
-283 41 -290 -5 -15 -398 -79 -411 -67 -11 11 -35 132 -36 178 0 18 11 50 27
75 57 91 61 183 12 284 -49 102 -163 116 -389 51 -63 -19 -83 -30 -125 -73
-119 -118 -115 -301 16 -795 43 -165 91 -227 202 -264 85 -28 109 -26 612 65
394 72 498 94 545 114 43 20 99 92 106 137 9 54 -12 196 -75 511 -33 160 -73
380 -91 487 -69 431 -84 480 -166 570 -106 113 -194 122 -664 64z"/>
<path d="M21666 6566 c-49 -18 -118 -62 -193 -120 -32 -25 -146 -115 -254
-200 -202 -159 -325 -253 -659 -506 -198 -149 -272 -218 -291 -268 -6 -15 -11
-56 -12 -92 0 -52 6 -80 32 -141 40 -96 156 -288 301 -499 184 -269 229 -327
284 -367 78 -59 242 -5 451 147 28 20 109 76 180 125 355 241 421 312 470 504
26 100 4 171 -83 263 -70 75 -130 102 -222 103 -88 0 -127 -17 -207 -90 -66
-59 -87 -93 -108 -180 -9 -38 -24 -78 -33 -89 -25 -27 -120 -90 -177 -116
l-50 -23 -27 34 c-95 116 -188 241 -188 251 0 30 95 118 317 294 131 103 276
220 323 259 172 144 178 148 204 141 38 -9 127 -97 233 -229 54 -67 151 -189
217 -272 66 -82 143 -177 171 -210 81 -95 135 -170 135 -190 0 -96 -622 -586
-1216 -959 -263 -165 -396 -239 -441 -244 -42 -4 -46 -2 -86 41 -41 44 -61 78
-285 482 -181 327 -367 645 -410 701 -50 65 -128 106 -200 106 -68 -1 -123
-24 -355 -150 -527 -287 -1048 -521 -1572 -707 -104 -37 -212 -79 -238 -93
-70 -38 -132 -111 -147 -172 -23 -95 -6 -173 185 -830 195 -673 189 -639 123
-705 -36 -35 -60 -48 -143 -75 -55 -17 -147 -42 -205 -55 -125 -28 -263 -64
-380 -98 -172 -51 -451 -116 -635 -147 -27 -5 -142 -25 -255 -45 -113 -20
-242 -39 -286 -42 -73 -5 -85 -3 -112 15 -16 12 -34 34 -40 49 -7 16 -23 132
-37 258 -14 127 -35 302 -46 390 -57 453 -60 492 -31 518 22 20 79 33 238 52
188 23 320 43 468 71 72 13 187 34 255 46 l123 22 29 -32 c41 -45 59 -119 66
-268 6 -131 6 -132 -18 -147 -26 -18 -179 -57 -219 -57 -18 0 -41 16 -74 49
-27 28 -62 55 -77 62 -39 15 -229 6 -294 -14 -71 -23 -140 -71 -159 -111 -21
-45 -22 -242 -2 -311 24 -77 76 -146 142 -185 50 -30 69 -35 134 -38 97 -5
354 40 616 108 313 81 437 135 492 214 26 38 27 45 26 155 -1 115 -50 436
-119 778 -51 252 -104 323 -262 352 -49 10 -132 -2 -341 -48 -360 -79 -832
-160 -1235 -211 -189 -24 -303 -102 -342 -234 -20 -65 -19 -233 1 -383 8 -65
21 -165 29 -223 98 -757 123 -927 150 -1036 51 -200 127 -287 284 -324 128
-30 478 3 906 84 72 14 168 32 215 41 546 104 1493 366 1674 463 103 56 154
157 142 281 -3 36 -15 104 -26 151 -21 85 -198 670 -292 960 -27 85 -52 175
-55 200 -5 41 -2 49 24 76 35 35 108 71 298 149 429 175 717 307 1098 505 54
28 110 52 125 53 36 3 98 -81 229 -310 244 -425 355 -663 339 -727 -10 -42
-85 -88 -371 -230 -324 -161 -476 -227 -531 -234 -38 -4 -44 -1 -67 30 -33 43
-55 94 -78 182 -18 65 -18 71 -2 88 26 29 144 81 303 133 221 73 265 97 299
162 16 31 14 58 -10 149 -40 156 -90 238 -166 274 -78 37 -162 22 -335 -59
-123 -58 -439 -201 -444 -201 -3 0 -46 -20 -97 -45 -98 -47 -163 -101 -173
-142 -16 -62 7 -176 99 -498 133 -462 151 -507 238 -594 102 -102 214 -115
379 -45 484 205 934 432 1517 767 193 111 264 154 538 325 581 364 1006 674
1409 1025 156 136 211 205 245 309 26 80 37 228 22 285 -16 58 -105 188 -261
378 -72 88 -193 236 -268 329 -237 292 -399 482 -454 530 -85 75 -164 109
-261 113 -54 2 -95 -2 -121 -11z"/>
<path d="M7078 6537 c-133 -38 -274 -171 -624 -587 -277 -330 -475 -590 -536
-703 -22 -42 -27 -92 -18 -191 19 -219 87 -296 650 -732 388 -302 755 -553
1295 -889 373 -232 917 -525 1290 -695 398 -182 543 -237 650 -247 92 -8 152
26 222 128 68 99 99 186 208 580 105 377 109 460 30 542 -40 41 -95 69 -410
206 -126 55 -275 121 -330 145 -167 76 -244 63 -342 -58 -55 -68 -93 -152
-100 -220 -7 -68 0 -96 34 -136 43 -52 94 -77 276 -139 251 -85 337 -133 337
-189 0 -30 -71 -183 -106 -229 -47 -61 -71 -53 -586 201 -262 130 -338 178
-371 234 -19 33 -19 36 -3 95 19 69 116 260 321 632 134 244 174 305 202 305
22 0 127 -48 393 -178 360 -176 569 -269 905 -401 203 -80 264 -109 278 -132
8 -12 -1 -53 -31 -150 -45 -144 -164 -547 -269 -909 -75 -259 -88 -360 -59
-447 20 -60 75 -127 125 -152 120 -62 758 -255 1141 -346 80 -19 213 -51 295
-70 136 -33 344 -77 560 -119 115 -22 333 -54 454 -66 203 -20 319 -10 421 36
152 68 194 192 270 794 6 52 25 187 41 300 37 268 67 505 79 628 15 161 -9
252 -88 335 -67 70 -133 92 -352 118 -91 11 -205 26 -255 34 -49 8 -164 26
-255 41 -161 25 -507 89 -760 140 -219 44 -316 29 -399 -61 -67 -72 -88 -143
-150 -495 -55 -306 -73 -459 -69 -561 3 -76 6 -91 32 -128 16 -23 50 -54 75
-69 77 -45 456 -151 761 -213 260 -52 361 -42 459 46 80 72 131 236 117 374
-17 159 -99 217 -321 228 -111 5 -93 12 -240 -92 -27 -19 -64 -38 -82 -41 -44
-8 -140 28 -190 71 l-38 33 2 74 c2 79 35 265 53 298 14 26 44 26 210 -6 295
-55 354 -65 580 -99 269 -41 301 -49 332 -82 34 -36 34 -34 -62 -843 -37 -314
-35 -304 -71 -334 -53 -45 -98 -52 -202 -33 -51 10 -180 33 -287 53 -265 48
-327 60 -385 73 -97 22 -292 73 -405 106 -137 39 -109 31 -398 105 -245 63
-313 90 -355 140 -56 66 -54 78 96 595 107 370 204 744 213 821 14 119 -45
225 -156 282 -36 18 -178 72 -317 121 -314 111 -776 295 -991 395 -178 82
-297 143 -555 285 -191 105 -230 121 -297 121 -84 0 -159 -46 -221 -136 -16
-24 -106 -195 -201 -381 -225 -445 -363 -685 -447 -779 l-33 -37 -57 27 c-84
42 -461 274 -667 412 -197 131 -665 483 -801 602 -81 71 -143 149 -143 180 0
27 72 132 198 290 181 226 504 602 518 602 16 0 84 -51 189 -140 103 -88 165
-136 430 -335 216 -162 235 -179 235 -203 0 -34 -216 -292 -245 -292 -20 0
-171 116 -194 149 -12 17 -23 53 -27 87 -13 120 -116 227 -246 254 -100 20
-168 -4 -265 -94 -73 -67 -118 -151 -117 -216 2 -121 82 -255 220 -369 108
-90 434 -325 547 -395 147 -90 243 -108 313 -57 75 55 184 192 305 383 337
532 343 543 341 621 -2 100 -62 173 -242 298 -109 75 -601 444 -680 510 -141
116 -381 291 -442 322 -68 34 -144 42 -210 24z"/>
<path d="M23495 6256 c-210 -51 -345 -240 -345 -483 0 -178 90 -320 257 -404
67 -33 71 -34 193 -34 122 0 127 1 195 34 101 49 190 144 230 242 27 69 29 83
30 204 0 130 0 131 -35 200 -99 195 -312 293 -525 241z"/>
<path d="M5240 6253 c-97 -17 -197 -77 -264 -158 -60 -75 -87 -149 -93 -260
-10 -164 34 -283 137 -378 145 -134 337 -161 516 -72 119 58 198 159 229 290
49 203 -32 414 -197 512 -89 54 -232 82 -328 66z"/>
<path d="M14322 2249 c-74 -14 -134 -51 -213 -129 -111 -111 -144 -202 -138
-377 4 -80 8 -97 43 -169 102 -206 319 -313 528 -259 135 36 242 115 306 228
106 188 73 448 -75 589 -107 101 -290 149 -451 117z"/>
</g>
</svg>
